<svg xmlns="http://www.w3.org/2000/svg" xmlns:xlink="http://www.w3.org/1999/xlink" width="500" zoomAndPan="magnify" viewBox="0 0 375 374.999991" height="500" preserveAspectRatio="xMidYMid meet" version="1.0"><defs><g/><clipPath id="bed899abcb"><path d="M 187.5 0 C 83.945312 0 0 83.945312 0 187.5 C 0 291.054688 83.945312 375 187.5 375 C 291.054688 375 375 291.054688 375 187.5 C 375 83.945312 291.054688 0 187.5 0 Z M 187.5 0 " clip-rule="nonzero"/></clipPath></defs><g clip-path="url(#bed899abcb)"><rect x="-37.5" width="450" fill="#000000" y="-37.499999" height="449.999989" fill-opacity="1"/></g><g fill="#ffffff" fill-opacity="1"><g transform="translate(100.274998, 232.124985)"><g><path d="M 40.125 0 L 7.90625 0 L 7.90625 -90.90625 L 40.390625 -90.90625 C 49.535156 -90.90625 57.414062 -89.09375 64.03125 -85.46875 C 70.644531 -81.84375 75.726562 -76.640625 79.28125 -69.859375 C 82.832031 -63.085938 84.609375 -54.984375 84.609375 -45.546875 C 84.609375 -36.078125 82.820312 -27.9375 79.25 -21.125 C 75.6875 -14.320312 70.582031 -9.097656 63.9375 -5.453125 C 57.300781 -1.816406 49.363281 0 40.125 0 Z M 27.125 -16.46875 L 39.328125 -16.46875 C 47.878906 -16.46875 54.367188 -18.773438 58.796875 -23.390625 C 63.222656 -28.003906 65.4375 -35.390625 65.4375 -45.546875 C 65.4375 -55.640625 63.222656 -62.976562 58.796875 -67.5625 C 54.367188 -72.144531 47.894531 -74.4375 39.375 -74.4375 L 27.125 -74.4375 Z M 27.125 -16.46875 "/></g></g></g><g fill="#ffffff" fill-opacity="1"><g transform="translate(191.178434, 232.124985)"><g><path d="M 4.4375 -75.0625 L 4.4375 -90.90625 L 79.109375 -90.90625 L 79.109375 -75.0625 L 51.265625 -75.0625 L 51.265625 0 L 32.265625 0 L 32.265625 -75.0625 Z M 4.4375 -75.0625 "/></g></g></g></svg>